ffmpeg started on 2025-06-19 at 12:04:32
Report written to "D:\Convert\FFMetrics\reports\psnr_report-6.txt"
Log level: 32
Command line:
ffmpeg -hide_banner -nostdin -i "G:\\\xc0\xed\xe8\xec\xe5\\[\xd2\xee\xef-4]\\Fate\\\xc0\xef\xee\xea\xf0\xe8\xf4\\Fate_Apocrypha_[19]_[AniLibria_TV]_[HDTVRip_720p]_HEVC.mkv" -i "G:\\\xc0\xed\xe8\xec\xe5\\[\xd2\xee\xef-4]\\Fate\\\xc0\xef\xee\xea\xf0\xe8\xf4\\Fate_Apocrypha_[19]_[AniLibria_TV]_[HDTVRip_720p].mkv" -lavfi "[0:v]settb=AVTB,setpts=PTS-STARTPTS,format=pix_fmts=yuv420p10,fps=24000/1001,scale=1280:720:flags=bicubic[main];[1:v]settb=AVTB,setpts=PTS-STARTPTS,format=pix_fmts=yuv420p,fps=24000/1001,scale=1280:720:flags=bicubic[ref];[main][ref]psnr=eof_action=endall:stats_file='D\\:/Convert/FFMetrics/logs/psnr_logfile-6.txt'" -f null -
Input #0, matroska,webm, from 'G:\Аниме\[Топ-4]\Fate\Апокриф\Fate_Apocrypha_[19]_[AniLibria_TV]_[HDTVRip_720p]_HEVC.mkv':
  Metadata:
    ENCODER         : Lavf61.7.100
  Duration: 00:24:00.11, start: -0.021000, bitrate: 551 kb/s
  Stream #0:0(jpn): Video: hevc (Main 10), yuv420p10le(tv, bt709, progressive), 1280x720 [SAR 1:1 DAR 16:9], 23.81 fps, 23.81 tbr, 1k tbn (default)
      Metadata:
        ENCODER         : Lavc61.19.100 libx265
        BPS             : 354328
        DURATION        : 00:24:00.054000000
        NUMBER_OF_FRAMES: 34525
        NUMBER_OF_BYTES : 63781522
        _STATISTICS_WRITING_APP: mkvpropedit v66.0.0 ('Josie') 64-bit
        _STATISTICS_WRITING_DATE_UTC: 2025-06-16 17:38:06
        _STATISTICS_TAGS: BPS DURATION NUMBER_OF_FRAMES NUMBER_OF_BYTES
  Stream #0:1(rus): Audio: aac (LC), 48000 Hz, stereo, fltp (default)
      Metadata:
        title           : Ados Amikiri Anzen Hekomi Silv
        ENCODER         : Lavc61.19.100 aac
        BPS             : 193353
        DURATION        : 00:24:00.085000000
        NUMBER_OF_FRAMES: 67505
        NUMBER_OF_BYTES : 34805772
        _STATISTICS_WRITING_APP: mkvpropedit v66.0.0 ('Josie') 64-bit
        _STATISTICS_WRITING_DATE_UTC: 2025-06-16 17:38:06
        _STATISTICS_TAGS: BPS DURATION NUMBER_OF_FRAMES NUMBER_OF_BYTES
  Stream #0:2(rus): Subtitle: ass (ssa) (default) (forced)
      Metadata:
        title           : Надписи
        BPS             : 496
        DURATION        : 00:00:03.000000000
        NUMBER_OF_FRAMES: 2
        NUMBER_OF_BYTES : 186
        _STATISTICS_WRITING_APP: mkvpropedit v66.0.0 ('Josie') 64-bit
        _STATISTICS_WRITING_DATE_UTC: 2025-06-16 17:38:06
        _STATISTICS_TAGS: BPS DURATION NUMBER_OF_FRAMES NUMBER_OF_BYTES
  Stream #0:3(rus): Subtitle: ass (ssa)
      Metadata:
        title           : Полные
        BPS             : 121
        DURATION        : 00:22:15.900000000
        NUMBER_OF_FRAMES: 274
        NUMBER_OF_BYTES : 20281
        _STATISTICS_WRITING_APP: mkvpropedit v66.0.0 ('Josie') 64-bit
        _STATISTICS_WRITING_DATE_UTC: 2025-06-16 17:38:06
        _STATISTICS_TAGS: BPS DURATION NUMBER_OF_FRAMES NUMBER_OF_BYTES
Input #1, matroska,webm, from 'G:\Аниме\[Топ-4]\Fate\Апокриф\Fate_Apocrypha_[19]_[AniLibria_TV]_[HDTVRip_720p].mkv':
  Metadata:
    encoder         : libebml v1.3.0 + libmatroska v1.4.1
    creation_time   : 2017-11-13T20:48:14.000000Z
  Duration: 00:24:00.09, start: 0.000000, bitrate: 1641 kb/s
  Stream #1:0: Video: h264 (Main), yuv420p(tv, bt709, progressive), 1280x720, SAR 1:1 DAR 16:9, 23.81 fps, 23.81 tbr, 1k tbn (default)
      Metadata:
        BPS             : 1258776
        BPS-eng         : 1258776
        DURATION        : 00:24:00.037000000
        DURATION-eng    : 00:24:00.037000000
        NUMBER_OF_FRAMES: 34525
        NUMBER_OF_FRAMES-eng: 34525
        NUMBER_OF_BYTES : 226585630
        NUMBER_OF_BYTES-eng: 226585630
        _STATISTICS_WRITING_APP: mkvmerge v7.3.0 ('Nouages') 64bit built on Oct 22 2014 18:53:34
        _STATISTICS_WRITING_APP-eng: mkvmerge v7.3.0 ('Nouages') 64bit built on Oct 22 2014 18:53:34
        _STATISTICS_WRITING_DATE_UTC: 2017-11-13 20:48:14
        _STATISTICS_WRITING_DATE_UTC-eng: 2017-11-13 20:48:14
        _STATISTICS_TAGS: BPS DURATION NUMBER_OF_FRAMES NUMBER_OF_BYTES
        _STATISTICS_TAGS-eng: BPS DURATION NUMBER_OF_FRAMES NUMBER_OF_BYTES
  Stream #1:1(rus): Audio: aac (LC), 48000 Hz, stereo, fltp (default)
      Metadata:
        title           : Ados Amikiri Anzen Hekomi Silv
        BPS             : 192093
        BPS-eng         : 192093
        DURATION        : 00:24:00.085000000
        DURATION-eng    : 00:24:00.085000000
        NUMBER_OF_FRAMES: 67504
        NUMBER_OF_FRAMES-eng: 67504
        NUMBER_OF_BYTES : 34578864
        NUMBER_OF_BYTES-eng: 34578864
        _STATISTICS_WRITING_APP: mkvmerge v7.3.0 ('Nouages') 64bit built on Oct 22 2014 18:53:34
        _STATISTICS_WRITING_APP-eng: mkvmerge v7.3.0 ('Nouages') 64bit built on Oct 22 2014 18:53:34
        _STATISTICS_WRITING_DATE_UTC: 2017-11-13 20:48:14
        _STATISTICS_WRITING_DATE_UTC-eng: 2017-11-13 20:48:14
        _STATISTICS_TAGS: BPS DURATION NUMBER_OF_FRAMES NUMBER_OF_BYTES
        _STATISTICS_TAGS-eng: BPS DURATION NUMBER_OF_FRAMES NUMBER_OF_BYTES
  Stream #1:2(jpn): Audio: aac (LC), 48000 Hz, stereo, fltp
      Metadata:
        title           : Оригинал
        BPS             : 186005
        BPS-eng         : 186005
        DURATION        : 00:24:00.064000000
        DURATION-eng    : 00:24:00.064000000
        NUMBER_OF_FRAMES: 67503
        NUMBER_OF_FRAMES-eng: 67503
        NUMBER_OF_BYTES : 33482438
        NUMBER_OF_BYTES-eng: 33482438
        _STATISTICS_WRITING_APP: mkvmerge v7.3.0 ('Nouages') 64bit built on Oct 22 2014 18:53:34
        _STATISTICS_WRITING_APP-eng: mkvmerge v7.3.0 ('Nouages') 64bit built on Oct 22 2014 18:53:34
        _STATISTICS_WRITING_DATE_UTC: 2017-11-13 20:48:14
        _STATISTICS_WRITING_DATE_UTC-eng: 2017-11-13 20:48:14
        _STATISTICS_TAGS: BPS DURATION NUMBER_OF_FRAMES NUMBER_OF_BYTES
        _STATISTICS_TAGS-eng: BPS DURATION NUMBER_OF_FRAMES NUMBER_OF_BYTES
  Stream #1:3(rus): Subtitle: ass (ssa) (default) (forced)
      Metadata:
        title           : Надписи
        BPS             : 496
        BPS-eng         : 496
        DURATION        : 00:00:03.000000000
        DURATION-eng    : 00:00:03.000000000
        NUMBER_OF_FRAMES: 2
        NUMBER_OF_FRAMES-eng: 2
        NUMBER_OF_BYTES : 186
        NUMBER_OF_BYTES-eng: 186
        _STATISTICS_WRITING_APP: mkvmerge v7.3.0 ('Nouages') 64bit built on Oct 22 2014 18:53:34
        _STATISTICS_WRITING_APP-eng: mkvmerge v7.3.0 ('Nouages') 64bit built on Oct 22 2014 18:53:34
        _STATISTICS_WRITING_DATE_UTC: 2017-11-13 20:48:14
        _STATISTICS_WRITING_DATE_UTC-eng: 2017-11-13 20:48:14
        _STATISTICS_TAGS: BPS DURATION NUMBER_OF_FRAMES NUMBER_OF_BYTES
        _STATISTICS_TAGS-eng: BPS DURATION NUMBER_OF_FRAMES NUMBER_OF_BYTES
  Stream #1:4(rus): Subtitle: ass (ssa)
      Metadata:
        title           : Полные
        BPS             : 121
        BPS-eng         : 121
        DURATION        : 00:22:15.900000000
        DURATION-eng    : 00:22:15.900000000
        NUMBER_OF_FRAMES: 274
        NUMBER_OF_FRAMES-eng: 274
        NUMBER_OF_BYTES : 20281
        NUMBER_OF_BYTES-eng: 20281
        _STATISTICS_WRITING_APP: mkvmerge v7.3.0 ('Nouages') 64bit built on Oct 22 2014 18:53:34
        _STATISTICS_WRITING_APP-eng: mkvmerge v7.3.0 ('Nouages') 64bit built on Oct 22 2014 18:53:34
        _STATISTICS_WRITING_DATE_UTC: 2017-11-13 20:48:14
        _STATISTICS_WRITING_DATE_UTC-eng: 2017-11-13 20:48:14
        _STATISTICS_TAGS: BPS DURATION NUMBER_OF_FRAMES NUMBER_OF_BYTES
        _STATISTICS_TAGS-eng: BPS DURATION NUMBER_OF_FRAMES NUMBER_OF_BYTES
  Stream #1:5: Attachment: ttf
      Metadata:
        filename        : ALBR.ttf
        mimetype        : application/x-truetype-font
  Stream #1:6: Attachment: ttf
      Metadata:
        filename        : 9511(1).ttf
        mimetype        : application/x-truetype-font
Stream mapping:
  Stream #0:0 (hevc) -> settb:default
  Stream #1:0 (h264) -> settb:default
  psnr:default -> Stream #0:0 (wrapped_avframe)
  Stream #0:1 -> #0:1 (aac (native) -> pcm_s16le (native))
Output #0, null, to 'pipe:':
  Metadata:
    encoder         : Lavf61.7.100
  Stream #0:0: Video: wrapped_avframe, yuv420p10le(tv, bt709, progressive), 1280x720 [SAR 1:1 DAR 16:9], q=2-31, 200 kb/s, 23.98 fps, 23.98 tbn
      Metadata:
        encoder         : Lavc61.19.100 wrapped_avframe
  Stream #0:1(rus): Audio: pcm_s16le, 48000 Hz, stereo, s16, 1536 kb/s (default)
      Metadata:
        title           : Ados Amikiri Anzen Hekomi Silv
        _STATISTICS_TAGS: BPS DURATION NUMBER_OF_FRAMES NUMBER_OF_BYTES
        BPS             : 193353
        DURATION        : 00:24:00.085000000
        NUMBER_OF_FRAMES: 67505
        NUMBER_OF_BYTES : 34805772
        _STATISTICS_WRITING_APP: mkvpropedit v66.0.0 ('Josie') 64-bit
        _STATISTICS_WRITING_DATE_UTC: 2025-06-16 17:38:06
        encoder         : Lavc61.19.100 pcm_s16le
frame=  511 fps=0.0 q=-0.0 size=N/A time=00:00:21.31 bitrate=N/A speed=41.6x    frame= 1150 fps=1111 q=-0.0 size=N/A time=00:00:47.96 bitrate=N/A speed=46.3x    frame= 1534 fps=992 q=-0.0 size=N/A time=00:01:03.98 bitrate=N/A speed=41.4x    frame= 1975 fps=955 q=-0.0 size=N/A time=00:01:22.37 bitrate=N/A speed=39.8x    frame= 2386 fps=920 q=-0.0 size=N/A time=00:01:39.51 bitrate=N/A speed=38.4x    frame= 2812 fps=907 q=-0.0 size=N/A time=00:01:57.28 bitrate=N/A speed=37.8x    frame= 3195 fps=881 q=-0.0 size=N/A time=00:02:13.25 bitrate=N/A speed=36.7x    frame= 3660 fps=885 q=-0.0 size=N/A time=00:02:32.65 bitrate=N/A speed=36.9x    frame= 4184 fps=900 q=-0.0 size=N/A time=00:02:54.50 bitrate=N/A speed=37.5x    frame= 4622 fps=894 q=-0.0 size=N/A time=00:03:12.77 bitrate=N/A speed=37.3x    frame= 5259 fps=926 q=-0.0 size=N/A time=00:03:39.34 bitrate=N/A speed=38.6x    frame= 5906 fps=952 q=-0.0 size=N/A time=00:04:06.32 bitrate=N/A speed=39.7x    frame= 6568 fps=978 q=-0.0 size=N/A time=00:04:33.94 bitrate=N/A speed=40.8x    frame= 7225 fps=998 q=-0.0 size=N/A time=00:05:01.34 bitrate=N/A speed=41.6x    frame= 7882 fps=1017 q=-0.0 size=N/A time=00:05:28.74 bitrate=N/A speed=42.4x    frame= 8473 fps=1026 q=-0.0 size=N/A time=00:05:53.39 bitrate=N/A speed=42.8x    frame= 8993 fps=1024 q=-0.0 size=N/A time=00:06:15.08 bitrate=N/A speed=42.7x    frame= 9410 fps=1012 q=-0.0 size=N/A time=00:06:32.47 bitrate=N/A speed=42.2x    frame= 9943 fps=1013 q=-0.0 size=N/A time=00:06:54.70 bitrate=N/A speed=42.2x    frame=10509 fps=1018 q=-0.0 size=N/A time=00:07:18.31 bitrate=N/A speed=42.4x    frame=11089 fps=1023 q=-0.0 size=N/A time=00:07:42.50 bitrate=N/A speed=42.7x    frame=11625 fps=1023 q=-0.0 size=N/A time=00:08:04.85 bitrate=N/A speed=42.7x    frame=12099 fps=1019 q=-0.0 size=N/A time=00:08:24.62 bitrate=N/A speed=42.5x    frame=12566 fps=1015 q=-0.0 size=N/A time=00:08:44.10 bitrate=N/A speed=42.3x    frame=13154 fps=1019 q=-0.0 size=N/A time=00:09:08.63 bitrate=N/A speed=42.5x    frame=13682 fps=1019 q=-0.0 size=N/A time=00:09:30.65 bitrate=N/A speed=42.5x    frame=14226 fps=1020 q=-0.0 size=N/A time=00:09:53.34 bitrate=N/A speed=42.6x    frame=14745 fps=1020 q=-0.0 size=N/A time=00:10:14.98 bitrate=N/A speed=42.6x    frame=15172 fps=1014 q=-0.0 size=N/A time=00:10:32.79 bitrate=N/A speed=42.3x    frame=15824 fps=1022 q=-0.0 size=N/A time=00:10:59.99 bitrate=N/A speed=42.6x    frame=16427 fps=1027 q=-0.0 size=N/A time=00:11:25.14 bitrate=N/A speed=42.8x    frame=17065 fps=1034 q=-0.0 size=N/A time=00:11:51.75 bitrate=N/A speed=43.1x    frame=17713 fps=1040 q=-0.0 size=N/A time=00:12:18.77 bitrate=N/A speed=43.4x    frame=18287 fps=1042 q=-0.0 size=N/A time=00:12:42.72 bitrate=N/A speed=43.5x    frame=18774 fps=1040 q=-0.0 size=N/A time=00:13:03.03 bitrate=N/A speed=43.4x    frame=19366 fps=1042 q=-0.0 size=N/A time=00:13:27.72 bitrate=N/A speed=43.5x    frame=19918 fps=1043 q=-0.0 size=N/A time=00:13:50.74 bitrate=N/A speed=43.5x    frame=20525 fps=1047 q=-0.0 size=N/A time=00:14:16.06 bitrate=N/A speed=43.7x    frame=21067 fps=1047 q=-0.0 size=N/A time=00:14:38.66 bitrate=N/A speed=43.7x    frame=21696 fps=1051 q=-0.0 size=N/A time=00:15:04.90 bitrate=N/A speed=43.9x    frame=22268 fps=1052 q=-0.0 size=N/A time=00:15:28.76 bitrate=N/A speed=43.9x    frame=22896 fps=1057 q=-0.0 size=N/A time=00:15:54.95 bitrate=N/A speed=44.1x    frame=23444 fps=1057 q=-0.0 size=N/A time=00:16:17.81 bitrate=N/A speed=44.1x    frame=24065 fps=1060 q=-0.0 size=N/A time=00:16:43.71 bitrate=N/A speed=44.2x    frame=24718 fps=1065 q=-0.0 size=N/A time=00:17:10.94 bitrate=N/A speed=44.4x    frame=25325 fps=1067 q=-0.0 size=N/A time=00:17:36.26 bitrate=N/A speed=44.5x    frame=25941 fps=1070 q=-0.0 size=N/A time=00:18:01.99 bitrate=N/A speed=44.6x    frame=26485 fps=1070 q=-0.0 size=N/A time=00:18:24.64 bitrate=N/A speed=44.6x    frame=27001 fps=1068 q=-0.0 size=N/A time=00:18:46.16 bitrate=N/A speed=44.6x    frame=27543 fps=1068 q=-0.0 size=N/A time=00:19:08.77 bitrate=N/A speed=44.5x    frame=28150 fps=1070 q=-0.0 size=N/A time=00:19:34.08 bitrate=N/A speed=44.6x    frame=28773 fps=1072 q=-0.0 size=N/A time=00:20:00.07 bitrate=N/A speed=44.7x    frame=29386 fps=1075 q=-0.0 size=N/A time=00:20:25.64 bitrate=N/A speed=44.8x    frame=30003 fps=1077 q=-0.0 size=N/A time=00:20:51.37 bitrate=N/A speed=44.9x    frame=30599 fps=1078 q=-0.0 size=N/A time=00:21:16.23 bitrate=N/A speed=  45x    frame=31199 fps=1080 q=-0.0 size=N/A time=00:21:41.25 bitrate=N/A speed=45.1x    frame=31734 fps=1079 q=-0.0 size=N/A time=00:22:03.57 bitrate=N/A speed=  45x    frame=32257 fps=1078 q=-0.0 size=N/A time=00:22:25.38 bitrate=N/A speed=  45x    frame=32833 fps=1079 q=-0.0 size=N/A time=00:22:49.40 bitrate=N/A speed=  45x    frame=33370 fps=1078 q=-0.0 size=N/A time=00:23:11.80 bitrate=N/A speed=  45x    frame=33759 fps=1073 q=-0.0 size=N/A time=00:23:28.03 bitrate=N/A speed=44.8x    frame=34311 fps=1073 q=-0.0 size=N/A time=00:23:51.05 bitrate=N/A speed=44.7x    [Parsed_psnr_10 @ 000001e5cc078040] PSNR y:34.924590 u:46.034707 v:47.331043 average:36.541450 min:8.072686 max:62.974895
[out#0/null @ 000001e5c4c40000] video:14835KiB audio:270020KiB subtitle:0KiB other streams:0KiB global headers:0KiB muxing overhead: unknown
frame=34526 fps=1074 q=-0.0 Lsize=N/A time=00:24:00.02 bitrate=N/A speed=44.8x    
